<svg
  xmlns="http://www.w3.org/2000/svg"
  height="300"
  width="300"
  viewBox="0 0 64 64"
  aria-hidden="true"
>
  <path
    fill="currentcolor"
    d="M32 20c-6.617 0-12 5.383-12 12s5.383 12 12 12 12-5.383 12-12-5.383-12-12-12zM32 16a2 2 0 002-2V8a2 2 0 00-4 0v6a2 2 0 002 2zM32 48a2 2 0 00-2 2v6a2 2 0 004 0v-6a2 2 0 00-2-2zM56 30h-6a2 2 0 000 4h6a2 2 0 000-4zM16 32a2 2 0 00-2-2H8a2 2 0 000 4h6a2 2 0 002-2zM44.728 21.272c.512 0 1.023-.195 1.414-.586l4.243-4.243a2 2 0 10-2.828-2.828l-4.243 4.243a2 2 0 001.414 3.414zM17.858 43.313l-4.243 4.243a2 2 0 102.828 2.828l4.243-4.243a2 2 0 10-2.828-2.828zM46.142 43.313a2 2 0 10-2.828 2.828l4.243 4.243c.391.391.902.586 1.414.586s1.023-.195 1.414-.586a2 2 0 000-2.828l-4.243-4.243zM17.858 20.686c.39.391.902.586 1.414.586s1.024-.195 1.414-.586a2 2 0 000-2.828l-4.243-4.243a2 2 0 10-2.828 2.828l4.243 4.243z"
  />
</svg>
